HIERARCHY
ROOT Hips
{
  OFFSET 0 0 0
  CHANNELS 6 Xposition Yposition Zposition Zrotation Yrotation Xrotation
  JOINT LeftThigh
  {
    OFFSET 8.409438 0 -5.917753
    CHANNELS 3 Zrotation Yrotation Xrotation
    JOINT LeftLeg
    {
      OFFSET 0 0 -42.358652
      CHANNELS 3 Zrotation Yrotation Xrotation
      JOINT LeftFoot
      {
        OFFSET 0 0 -39.357303
        CHANNELS 3 Zrotation Yrotation Xrotation
      }
    }
  }
  JOINT RightThigh
  {
    OFFSET -8.409438 0 -5.917753
    CHANNELS 3 Zrotation Yrotation Xrotation
    JOINT RightLeg
    {
      OFFSET 0 0 -42.358652
      CHANNELS 3 Zrotation Yrotation Xrotation
      JOINT RightFoot
      {
        OFFSET 0 0 -39.357303
        CHANNELS 3 Zrotation Yrotation Xrotation
      }
    }
  }
  JOINT SpineLow
  {
    OFFSET 0 0 4.719101
    CHANNELS 3 Zrotation Yrotation Xrotation
    JOINT SpineMid
    {
      OFFSET 0 0 12.899191
      CHANNELS 3 Zrotation Yrotation Xrotation
      JOINT Chest
      {
        OFFSET 0 0 12.899191
        CHANNELS 3 Zrotation Yrotation Xrotation
        JOINT LeftShoulder
        {
          OFFSET 7.550562 1.41573 9.438202
          CHANNELS 3 Zrotation Yrotation Xrotation
          JOINT LeftArm
          {
            OFFSET 9.155056 0 4.247191
            CHANNELS 3 Zrotation Yrotation Xrotation
            JOINT LeftForearm
            {
              OFFSET 0 0 25.771955
              CHANNELS 3 Zrotation Yrotation Xrotation
              JOINT LeftHand
              {
                OFFSET 0 0 25.197169
                CHANNELS 3 Zrotation Yrotation Xrotation
              }
            }
          }
        }
        JOINT RightShoulder
        {
          OFFSET -7.550562 1.41573 9.438202
          CHANNELS 3 Zrotation Yrotation Xrotation
          JOINT RightArm
          {
            OFFSET -9.155056 0 4.247191
            CHANNELS 3 Zrotation Yrotation Xrotation
            JOINT RightForearm
            {
              OFFSET 0 0 -25.771955
              CHANNELS 3 Zrotation Yrotation Xrotation
              JOINT RightHand
              {
                OFFSET 0 0 -25.197169
                CHANNELS 3 Zrotation Yrotation Xrotation
              }
            }
          }
        }
        JOINT Neck
        {
          OFFSET 0 0 15.101124
          CHANNELS 3 Zrotation Yrotation Xrotation
          JOINT Head
          {
            OFFSET 0 0 11.325843
            CHANNELS 3 Zrotation Yrotation Xrotation
            End Site
            {
              OFFSET 0 0 14.157303
            }
          }
        }
      }
    }
  }
}
MOTION
Frames: 17
Frame Time: 0.0
0.0  93.25843  0.0  2.491878  32.110469  -88.148931  0.101626  -10.882186  20.885641  -3.554834  1.258764  14.002259  6.521354  2.355918  -0.957693  -26.149231  -12.956922  -43.790231  11.660849  22.047116  54.173203  8.579013  4.802076  2.586399  0.516683  -0.287969  1.356092  1.395711  -0.815775  3.700568  1.395711  -0.815775  3.700568  -16.305721  24.230851  7.061727  147.117991  37.089983  -162.55584  -11.251025  10.911416  82.29109  55.906301  -29.886447  2.380283  5.366097  -10.769642  13.706452  25.404918  74.845953  -22.721915  -27.429007  -40.022119  -89.180167  55.380766  10.191823  -7.981599  -15.757414  -1.926084  1.083358  -11.813579  -1.47367  0.763348  
0.0  93.25843  0.0  2.961417  31.858672  -88.13292  -0.128906  -10.507374  20.455322  -3.433198  1.241305  15.120893  6.482625  2.483963  -1.083481  -26.234763  -12.594902  -43.998723  12.016999  21.864  54.252973  8.752075  4.686328  2.554866  0.621873  -0.143633  1.374872  1.691054  -0.427772  3.754145  1.691054  -0.427772  3.754146  -16.114808  24.018057  7.818253  148.780695  37.417595  -161.510572  -11.547147  12.476955  81.160084  56.222673  -29.561426  2.097232  4.859632  -10.729268  14.115945  26.350249  73.368856  -22.113612  -26.941267  -40.269062  -89.484836  55.148352  10.435809  -8.034919  -16.036983  -2.028091  1.364865  -12.022025  -1.558174  0.971076  
0.0  93.25843  0.0  3.142711  31.783815  -88.223208  0.44626  -10.168493  20.501164  -4.282941  0.674874  15.283065  6.143089  2.679685  -1.309446  -26.664785  -12.421905  -44.086097  12.253549  21.771344  54.233338  9.04515  4.481537  2.515429  0.502078  0.033647  1.327942  1.373752  0.064374  3.630316  1.373752  0.064374  3.630316  -14.74596  23.40416  8.880783  150.140593  37.475444  -160.803414  -11.97385  13.506245  80.327899  56.175872  -29.45018  1.867927  5.612327  -11.163693  14.715597  28.356494  72.100873  -20.463999  -26.675032  -40.311452  -89.86849  55.015257  10.580228  -8.076519  -15.555116  -2.193495  1.884582  -11.658284  -1.694418  1.358435  
0.0  93.25843  0.0  3.180934  31.863794  -88.197912  0.691075  -10.20332  20.296122  -5.412913  0.652231  15.105983  6.485886  2.753018  -1.421915  -27.248199  -12.440352  -44.21389  12.425555  21.559266  54.192033  9.245534  4.325078  2.521125  0.564557  0.116971  1.318871  1.54902  0.288819  3.607529  1.54902  0.288819  3.607529  -15.088879  22.961557  9.272432  150.462826  37.422065  -160.754828  -12.612537  13.704322  80.100928  56.002226  -29.357216  1.401075  5.144041  -11.362213  14.76454  30.819922  71.208143  -18.308455  -26.760817  -40.115719  -90.088688  54.958062  10.628907  -8.074725  -15.779141  -2.26109  2.081983  -11.825285  -1.750991  1.504047  
0.0  93.25843  0.0  3.159843  32.100547  -87.938787  0.549778  -9.949563  19.874096  -6.203108  0.549792  14.715747  6.246383  2.757273  -1.659257  -28.11868  -12.523275  -44.653324  12.51314  21.356257  54.185719  9.8414  4.19524  2.651157  0.54815  0.156654  1.264282  1.506048  0.399391  3.459174  1.506048  0.399391  3.459174  -15.311157  22.777486  9.449152  150.124742  37.360353  -161.099386  -13.465006  13.192249  80.062317  55.865077  -29.291233  1.071418  5.064542  -11.537918  14.718009  28.726327  71.191162  -18.632229  -24.729299  -41.396141  -91.676123  54.962018  10.594652  -7.990754  -15.836719  -2.192634  2.230445  -11.86828  -1.703669  1.617054  
0.0  93.25843  0.0  3.120694  32.248367  -87.691776  0.604223  -9.672348  19.95498  -6.785169  0.264472  13.751015  7.003431  2.604922  -1.723428  -28.633899  -12.568924  -45.016153  12.267717  21.165721  54.164369  9.84688  4.144964  2.689551  0.520488  0.148149  1.239569  1.429878  0.378135  3.391279  1.429878  0.378135  3.391279  -15.554399  22.881871  9.228327  149.60658  37.378866  -161.378246  -14.080799  12.153577  80.097906  55.871583  -29.185245  0.736954  5.232622  -11.586806  14.375106  31.636012  70.87647  -15.791544  -24.98446  -41.045114  -91.805969  55.01381  10.520553  -7.865639  -15.77791  -2.047761  2.21394  -11.824943  -1.594276  1.608644  
0.0  93.25843  0.0  3.062564  32.230461  -87.683235  1.823756  -9.509597  21.064214  -7.572343  -0.624916  11.887489  6.597718  2.454346  -1.924005  -29.099127  -12.424025  -45.251346  11.961696  20.942314  54.251816  9.931217  4.066546  2.727788  0.477567  0.114664  1.219235  1.310787  0.289247  3.334793  1.310787  0.289247  3.334793  -16.783204  23.000623  8.520388  150.54717  37.212879  -161.247499  -14.274018  10.972571  80.078251  56.046332  -29.068377  0.378536  5.491551  -11.604435  14.190099  34.679805  70.672734  -12.7786  -25.0407  -40.898234  -92.199957  55.075135  10.42636  -7.769122  -15.646177  -1.81763  2.237643  -11.727186  -1.421651  1.632798  
0.0  93.25843  0.0  2.992313  32.231279  -87.577045  2.259228  -9.563691  21.619751  -6.927489  -1.116207  10.575698  6.820235  2.373913  -1.850359  -29.319973  -12.239523  -45.47548  11.257493  20.900109  54.19249  10.014654  4.009336  2.748261  0.450808  0.074425  1.16959  1.23551  0.181573  3.198225  1.23551  0.181573  3.198225  -16.886964  23.245643  8.414776  150.605616  37.567854  -161.046888  -14.182302  10.004782  80.001022  56.359958  -28.89059  -0.028547  5.394925  -11.550074  14.179443  37.683487  70.43773  -10.017071  -24.942266  -40.924673  -92.864992  55.08089  10.297723  -7.680339  -15.565692  -1.658542  2.283977  -11.667454  -1.303119  1.671883  
0.0  93.25843  0.0  2.630218  31.241711  -87.961043  3.582973  -9.797056  22.398936  -5.81658  -1.609143  9.439729  6.845157  2.322273  -1.747965  -28.55834  -12.027898  -45.257862  10.52629  20.816708  54.148723  10.072105  3.982403  2.759575  0.360693  0.086092  1.082228  0.989546  0.219125  2.95938  0.989546  0.219125  2.95938  -15.50403  23.169521  9.006119  151.066344  38.057831  -160.665276  -14.08385  9.495968  79.862658  56.66191  -28.671832  -0.510704  6.001329  -11.714131  14.53476  41.768428  69.84681  -6.722008  -24.48957  -41.171658  -93.960347  55.079615  10.239687  -7.553741  -15.11891  -1.560519  2.560049  -11.332186  -1.23466  1.88266  
0.0  93.25843  0.0  2.36462  31.100466  -87.809475  4.105756  -9.975073  22.588463  -4.799415  -2.062282  8.531814  6.66004  2.250419  -1.705161  -28.497458  -12.014887  -45.401731  9.68926  20.874039  53.992403  10.175781  3.963951  2.734322  0.357988  0.04735  0.99173  0.980278  0.114722  2.71143  0.980278  0.114722  2.711431  -15.732827  23.199501  9.128049  151.430841  38.671667  -160.281599  -14.198447  9.500947  79.654948  56.968547  -28.490115  -0.98937  5.55372  -11.534651  14.529676  44.298581  69.070137  -4.55357  -23.612802  -41.472885  -95.490184  54.972222  10.107675  -7.480656  -15.074389  -1.573447  2.660977  -11.29849  -1.246665  1.958191  
0.0  93.25843  0.0  2.013035  30.926867  -87.771981  4.563155  -10.23926  22.812726  -4.321024  -2.555054  7.813811  6.299048  2.352451  -1.819924  -28.383483  -12.067287  -45.374605  8.985091  20.911363  53.829383  10.26838  3.968211  2.707959  0.32123  0.005519  0.899204  0.878115  0.003141  2.457908  0.878115  0.003141  2.457908  -15.914851  23.243676  9.275622  151.8405  39.317602  -159.91654  -14.566168  9.724388  79.416381  57.340822  -28.360274  -1.461208  5.213765  -11.375975  14.431775  47.050355  67.881666  -2.285157  -22.405245  -41.598785  -97.291786  54.972743  10.054567  -7.374095  -15.243868  -1.552427  2.675149  -11.425673  -1.232002  1.968949  
0.0  93.25843  0.0  1.69356  30.963335  -87.752788  4.536722  -10.346846  23.033618  -4.445862  -2.979712  7.16699  6.079695  2.45986  -1.916653  -28.453275  -12.112832  -45.245004  8.450821  20.899272  53.636548  10.33892  3.919307  2.652412  0.258068  -0.043622  0.819634  0.703833  -0.127964  2.239895  0.703833  -0.127964  2.239895  -16.151482  23.368443  9.37872  152.082201  39.993883  -159.585084  -15.070997  9.762151  79.230021  57.654285  -28.225693  -1.953307  4.828635  -11.224414  14.116227  49.321125  66.395485  -0.436486  -21.048342  -41.360898  -99.129982  54.950908  9.883475  -7.280779  -15.067847  -1.528485  2.77902  -11.293549  -1.215805  2.047914  
0.0  93.25843  0.0  1.32021  30.926319  -87.80555  4.128901  -10.40135  23.280987  -5.014591  -3.160475  6.430555  6.579214  2.405024  -1.716786  -28.424968  -12.201968  -44.894555  8.071749  20.812689  53.362807  10.400039  3.829029  2.545388  -0.002391  -0.041899  0.692152  -0.007733  -0.114447  1.891933  -0.007733  -0.114447  1.891933  -16.503052  23.133054  9.221932  153.896702  40.31794  -159.116307  -15.598536  9.63519  79.117777  57.889432  -28.139848  -2.429665  5.623576  -11.418845  14.104533  51.42757  64.685119  1.109135  -19.543355  -40.771348  -101.005053  54.984162  9.791159  -7.022318  -14.321862  -1.522  3.054844  -10.733483  -1.213932  2.256784  
0.0  93.25843  0.0  0.967089  30.82999  -87.857298  3.515917  -10.541828  23.548896  -5.135539  -3.112135  5.944105  7.188357  2.301208  -1.55712  -28.276945  -12.25871  -44.336454  7.769287  20.625321  52.923978  10.3699  3.72925  2.399067  -0.080472  -0.095477  0.61509  -0.222375  -0.25891  1.681609  -0.222375  -0.25891  1.681609  -16.726838  23.21991  9.204565  154.505861  40.996879  -158.762865  -16.026197  9.591013  79.063431  58.02586  -28.201563  -2.812211  5.153162  -11.304987  13.778134  53.366751  62.877506  2.360478  -17.941523  -39.882196  -102.855926  54.954453  9.79408  -6.553846  -14.000011  -1.431047  3.150889  -10.492422  -1.146231  2.3317  
0.0  93.25843  0.0  0.591186  30.569843  -87.987225  3.038081  -10.84468  23.85581  -4.612332  -2.985304  5.711054  7.400603  2.230743  -1.464312  -27.852111  -12.357762  -43.36628  7.429371  20.492286  52.123108  10.260951  3.622261  2.195511  -0.175692  -0.144164  0.542918  -0.48345  -0.390088  1.485067  -0.48345  -0.390088  1.485067  -17.901336  23.125748  8.727122  156.503579  41.44215  -158.120712  -16.396171  9.710525  79.055353  58.065608  -28.31307  -3.179427  4.918485  -11.26424  13.62658  55.338846  61.168173  3.616363  -16.160206  -38.940766  -104.863308  55.057789  10.04311  -5.875303  -13.736566  -1.31614  3.180762  -10.295458  -1.059283  2.357285  
0.0  93.25843  0.0  0.167217  30.200665  -88.178113  3.004088  -11.396683  24.133235  -3.731293  -2.889375  5.71005  6.997377  2.225179  -1.435534  -27.39748  -12.557724  -42.133255  7.135041  20.373651  51.103036  10.155732  3.52824  1.849868  -0.23468  -0.218782  0.472934  -0.645741  -0.593397  1.294857  -0.645741  -0.593397  1.294857  -18.286841  23.180708  8.603963  157.785976  42.16077  -157.403044  -16.724084  10.083707  79.051321  58.112495  -28.469364  -3.527764  4.330363  -11.157128  13.504082  57.734105  59.566007  5.091736  -14.599843  -37.93329  -106.74259  55.057446  10.218159  -5.32376  -13.323706  -1.124953  3.313316  -9.986714  -0.916514  2.461762  
0.0  93.25843  0.0  -0.325656  29.440434  -88.414684  3.767749  -12.111494  24.427313  -2.936777  -2.892462  5.828255  6.39485  2.167271  -1.317555  -26.954442  -12.942169  -41.009257  6.858092  20.227461  50.473334  10.556691  3.490402  1.349683  -0.254856  -0.306007  0.393752  -0.701619  -0.832254  1.079546  -0.701619  -0.832254  1.079546  -18.98806  23.249622  8.366875  159.556418  42.844183  -156.542665  -17.08029  10.532317  79.094797  58.176807  -28.621138  -3.778258  3.987389  -11.099253  13.636543  60.397905  58.239072  6.914673  -11.661287  -37.646601  -109.32899  56.19996  11.117545  -4.274665  -12.872427  -0.880836  3.503504  -9.649461  -0.734853  2.610393  
